<svg width="40" height="41" viewBox="0 0 40 41" fill="none" xmlns="http://www.w3.org/2000/svg">
<path d="M13.0764 18.302C13.6084 18.0966 14.1264 17.8353 14.6304 17.518C15.1344 17.1913 15.5964 16.7853 16.0164 16.3H16.9404V26.002H15.6384V18.106C15.5264 18.2086 15.3864 18.316 15.2184 18.428C15.0597 18.54 14.8824 18.6473 14.6864 18.75C14.4997 18.8526 14.2991 18.9506 14.0844 19.044C13.8791 19.1373 13.6784 19.2166 13.4824 19.282L13.0764 18.302ZM22.4628 20.038C23.8721 20.094 24.9034 20.402 25.5568 20.962C26.2194 21.522 26.5508 22.2826 26.5508 23.244C26.5508 23.6733 26.4761 24.07 26.3268 24.434C26.1868 24.798 25.9674 25.1106 25.6688 25.372C25.3794 25.6333 25.0108 25.8386 24.5628 25.988C24.1148 26.1373 23.5828 26.212 22.9668 26.212C22.7241 26.212 22.4768 26.1933 22.2248 26.156C21.9728 26.1186 21.7394 26.072 21.5248 26.016C21.3101 25.96 21.1188 25.904 20.9508 25.848C20.7828 25.792 20.6614 25.7453 20.5868 25.708L20.8388 24.574C20.9974 24.6486 21.2541 24.7466 21.6088 24.868C21.9728 24.9893 22.4161 25.05 22.9388 25.05C23.3588 25.05 23.7088 25.0033 23.9888 24.91C24.2781 24.8166 24.5114 24.6906 24.6888 24.532C24.8661 24.3733 24.9921 24.1913 25.0668 23.986C25.1508 23.7713 25.1928 23.5473 25.1928 23.314C25.1928 22.9593 25.1321 22.6466 25.0108 22.376C24.8894 22.096 24.6748 21.8626 24.3668 21.676C24.0588 21.4893 23.6481 21.3493 23.1348 21.256C22.6214 21.1533 21.9728 21.102 21.1888 21.102C21.2448 20.6446 21.2868 20.2153 21.3148 19.814C21.3521 19.4126 21.3848 19.0206 21.4128 18.638C21.4408 18.2553 21.4641 17.8773 21.4828 17.504C21.5014 17.1213 21.5201 16.72 21.5388 16.3H26.2148V17.406H22.6728C22.6634 17.546 22.6494 17.7373 22.6308 17.98C22.6121 18.2133 22.5934 18.4606 22.5748 18.722C22.5561 18.974 22.5374 19.2213 22.5188 19.464C22.5001 19.7066 22.4814 19.898 22.4628 20.038Z" fill="#E0E0E0"/>
<path d="M25.1307 1.00532L29.4571 8.49884L21.9635 12.8252M34.7157 18.0685C35.2331 21.3136 34.6267 24.6381 32.9969 27.4915C31.3672 30.3449 28.8118 32.5562 25.7538 33.7592C22.6959 34.9622 19.3188 35.0848 16.1817 34.1067C13.0446 33.1286 10.3356 31.1084 8.5032 28.3807C6.67083 25.6529 5.82498 22.3812 6.10571 19.1071C6.38643 15.8331 7.77688 12.7531 10.0469 10.3771C12.3168 8.00104 15.3302 6.47151 18.588 6.0417C21.8459 5.61189 25.1528 6.30758 27.9613 8.01359" stroke="#E6E7F2" stroke-width="1.6" stroke-linecap="round" stroke-linejoin="round"/>
</svg>
