<svg width="39" height="41" viewBox="0 0 39 41" fill="none" xmlns="http://www.w3.org/2000/svg">
<path d="M12.302 18.302C12.834 18.0966 13.352 17.8353 13.856 17.518C14.36 17.1913 14.822 16.7853 15.242 16.3H16.166V26.002H14.864V18.106C14.752 18.2086 14.612 18.316 14.444 18.428C14.2853 18.54 14.108 18.6473 13.912 18.75C13.7253 18.8526 13.5247 18.9506 13.31 19.044C13.1047 19.1373 12.904 19.2166 12.708 19.282L12.302 18.302ZM21.6883 20.038C23.0977 20.094 24.129 20.402 24.7823 20.962C25.445 21.522 25.7763 22.2826 25.7763 23.244C25.7763 23.6733 25.7017 24.07 25.5523 24.434C25.4123 24.798 25.193 25.1106 24.8943 25.372C24.605 25.6333 24.2363 25.8386 23.7883 25.988C23.3403 26.1373 22.8083 26.212 22.1923 26.212C21.9497 26.212 21.7023 26.1933 21.4503 26.156C21.1983 26.1186 20.965 26.072 20.7503 26.016C20.5357 25.96 20.3443 25.904 20.1763 25.848C20.0083 25.792 19.887 25.7453 19.8123 25.708L20.0643 24.574C20.223 24.6486 20.4797 24.7466 20.8343 24.868C21.1983 24.9893 21.6417 25.05 22.1643 25.05C22.5843 25.05 22.9343 25.0033 23.2143 24.91C23.5037 24.8166 23.737 24.6906 23.9143 24.532C24.0917 24.3733 24.2177 24.1913 24.2923 23.986C24.3763 23.7713 24.4183 23.5473 24.4183 23.314C24.4183 22.9593 24.3577 22.6466 24.2363 22.376C24.115 22.096 23.9003 21.8626 23.5923 21.676C23.2843 21.4893 22.8737 21.3493 22.3603 21.256C21.847 21.1533 21.1983 21.102 20.4143 21.102C20.4703 20.6446 20.5123 20.2153 20.5403 19.814C20.5777 19.4126 20.6103 19.0206 20.6383 18.638C20.6663 18.2553 20.6897 17.8773 20.7083 17.504C20.727 17.1213 20.7457 16.72 20.7643 16.3H25.4403V17.406H21.8983C21.889 17.546 21.875 17.7373 21.8563 17.98C21.8377 18.2133 21.819 18.4606 21.8003 18.722C21.7817 18.974 21.763 19.2213 21.7443 19.464C21.7257 19.7066 21.707 19.898 21.6883 20.038Z" fill="#E0E0E0"/>
<path d="M14.4181 1.00532L10.0918 8.49884L17.5853 12.8252M4.83312 18.0685C4.31575 21.3136 4.92215 24.6381 6.55191 27.4915C8.18167 30.3449 10.7371 32.5562 13.795 33.7592C16.8529 34.9622 20.23 35.0848 23.3671 34.1067C26.5043 33.1286 29.2133 31.1084 31.0456 28.3807C32.878 25.6529 33.7238 22.3812 33.4431 19.1071C33.1624 15.8331 31.7719 12.7531 29.502 10.3771C27.232 8.00104 24.2186 6.47151 20.9608 6.0417C17.703 5.61189 14.396 6.30758 11.5875 8.01359" stroke="#E6E7F2" stroke-width="1.6" stroke-linecap="round" stroke-linejoin="round"/>
</svg>
