<svg width="24" height="24" viewBox="0 0 24 24" fill="none" xmlns="http://www.w3.org/2000/svg">
<path d="M18 8.99984C18.6277 9.8355 18.9996 10.8742 18.9996 11.9998C18.9996 13.1254 18.6277 14.1642 18 14.9998M6.6 8.99984H7.5012C8.05213 8.99984 8.32759 8.99984 8.58285 8.93116C8.80903 8.87032 9.02275 8.77021 9.21429 8.63542C9.43047 8.48328 9.60681 8.27166 9.95951 7.84843L12.5854 4.69733C13.0211 4.17451 13.2389 3.9131 13.4292 3.8859C13.594 3.86234 13.7597 3.92233 13.8712 4.04592C14 4.18864 14 4.52892 14 5.20948V18.7902C14 19.4708 14 19.811 13.8712 19.9538C13.7597 20.0774 13.594 20.1373 13.4292 20.1138C13.239 20.0866 13.0211 19.8252 12.5854 19.3023L9.95951 16.1512C9.60681 15.728 9.43047 15.5164 9.21429 15.3643C9.02275 15.2295 8.80903 15.1294 8.58285 15.0685C8.32759 14.9998 8.05213 14.9998 7.5012 14.9998H6.6C6.03995 14.9998 5.75992 14.9998 5.54601 14.8908C5.35785 14.795 5.20487 14.642 5.10899 14.4538C5 14.2399 5 13.9599 5 13.3998V10.5998C5 10.0398 5 9.75976 5.10899 9.54585C5.20487 9.35769 5.35785 9.20471 5.54601 9.10883C5.75992 8.99984 6.03995 8.99984 6.6 8.99984Z" stroke="#E0E0E0" stroke-width="1.6" stroke-linecap="round" stroke-linejoin="round"/>
</svg>
